<svg xmlns="http://www.w3.org/2000/svg" width="180" height="180" viewBox="0 0 180 180">
  <defs>
    <linearGradient id="bg" x1="0%" y1="0%" x2="100%" y2="100%">
      <stop offset="0%" stop-color="#0747A6"/>
      <stop offset="100%" stop-color="#0052CC"/>
    </linearGradient>
    <filter id="shadow" x="-20%" y="-20%" width="140%" height="140%">
      <feDropShadow dx="0" dy="2" stdDeviation="3" flood-color="#000" flood-opacity="0.15"/>
    </filter>
  </defs>
  <rect width="180" height="180" rx="40" ry="40" fill="url(#bg)"/>
  <g transform="translate(34 34)" fill="#ffffff" filter="url(#shadow)">
    <rect x="0" y="0" width="112" height="112" rx="14" ry="14" fill="#ffffff" opacity="0.96"/>
    <rect x="12" y="12" width="88" height="22" rx="5" ry="5" fill="#0747A6"/>
    <g fill="#0747A6">
      <rect x="12"  y="44" width="18" height="18" rx="4"/>
      <rect x="35"  y="44" width="18" height="18" rx="4"/>
      <rect x="58"  y="44" width="18" height="18" rx="4"/>
      <rect x="81"  y="44" width="19" height="18" rx="4"/>
      <rect x="12"  y="66" width="18" height="18" rx="4"/>
      <rect x="35"  y="66" width="18" height="18" rx="4"/>
      <rect x="58"  y="66" width="18" height="18" rx="4"/>
      <rect x="81"  y="66" width="19" height="18" rx="4" fill="#FFAB00"/>
      <rect x="12"  y="88" width="41" height="18" rx="4"/>
      <rect x="58"  y="88" width="18" height="18" rx="4"/>
      <rect x="81"  y="88" width="19" height="18" rx="4" fill="#FFAB00"/>
    </g>
    <text x="23" y="29" font-family="-apple-system,'Helvetica Neue',Arial,sans-serif" font-size="15" font-weight="700" fill="#ffffff" letter-spacing="1">LIFECALC</text>
  </g>
</svg>
