<svg xmlns="http://www.w3.org/2000/svg" viewBox="0 0 512 512" width="512" height="512">
  <defs>
    <linearGradient id="bg512" x1="0%" y1="0%" x2="100%" y2="100%">
      <stop offset="0%" stop-color="#0747A6"/>
      <stop offset="60%" stop-color="#0052CC"/>
      <stop offset="100%" stop-color="#0065FF"/>
    </linearGradient>
    <filter id="shadow512" x="-20%" y="-20%" width="140%" height="140%">
      <feDropShadow dx="0" dy="6" stdDeviation="10" flood-color="#000" flood-opacity="0.22"/>
    </filter>
  </defs>
  <rect width="512" height="512" rx="96" fill="url(#bg512)"/>
  <g filter="url(#shadow512)" transform="translate(72 72)">
    <rect width="368" height="368" rx="52" fill="#ffffff"/>
    <rect x="40" y="48" width="288" height="76" rx="16" fill="#EAF2FF"/>
    <text x="304" y="108" font-family="-apple-system, BlinkMacSystemFont, Noto Sans KR, sans-serif" font-weight="800" font-size="58" fill="#0747A6" text-anchor="end">₩123</text>
    <g fill="#0747A6">
      <rect x="40" y="150" width="60" height="60" rx="12"/>
      <rect x="116" y="150" width="60" height="60" rx="12"/>
      <rect x="192" y="150" width="60" height="60" rx="12"/>
      <rect x="268" y="150" width="60" height="136" rx="12" fill="#FF8B00"/>
      <rect x="40" y="226" width="60" height="60" rx="12"/>
      <rect x="116" y="226" width="60" height="60" rx="12"/>
      <rect x="192" y="226" width="60" height="60" rx="12"/>
      <rect x="40" y="302" width="60" height="36" rx="12" fill="#00875A"/>
      <rect x="116" y="302" width="136" height="36" rx="12" fill="#00875A"/>
    </g>
  </g>
  <text x="256" y="486" font-family="-apple-system, BlinkMacSystemFont, Noto Sans KR, sans-serif" font-weight="800" font-size="32" fill="#ffffff" text-anchor="middle" opacity="0.92">생활계산기</text>
</svg>
