<svg xmlns="http://www.w3.org/2000/svg" viewBox="0 0 192 192" width="192" height="192">
  <defs>
    <linearGradient id="bg192" x1="0%" y1="0%" x2="100%" y2="100%">
      <stop offset="0%" stop-color="#0747A6"/>
      <stop offset="60%" stop-color="#0052CC"/>
      <stop offset="100%" stop-color="#0065FF"/>
    </linearGradient>
    <filter id="shadow192" x="-20%" y="-20%" width="140%" height="140%">
      <feDropShadow dx="0" dy="2" stdDeviation="3" flood-color="#000" flood-opacity="0.18"/>
    </filter>
  </defs>
  <rect width="192" height="192" rx="36" fill="url(#bg192)"/>
  <g filter="url(#shadow192)" transform="translate(28 28)">
    <rect width="136" height="136" rx="20" fill="#ffffff"/>
    <rect x="16" y="18" width="104" height="28" rx="6" fill="#EAF2FF"/>
    <text x="112" y="40" font-family="-apple-system, BlinkMacSystemFont, Noto Sans KR, sans-serif" font-weight="800" font-size="22" fill="#0747A6" text-anchor="end">123</text>
    <g fill="#0747A6">
      <rect x="16" y="56" width="22" height="22" rx="5"/>
      <rect x="44" y="56" width="22" height="22" rx="5"/>
      <rect x="72" y="56" width="22" height="22" rx="5"/>
      <rect x="100" y="56" width="20" height="50" rx="5" fill="#FF8B00"/>
      <rect x="16" y="84" width="22" height="22" rx="5"/>
      <rect x="44" y="84" width="22" height="22" rx="5"/>
      <rect x="72" y="84" width="22" height="22" rx="5"/>
      <rect x="16" y="112" width="22" height="14" rx="5" fill="#00875A"/>
      <rect x="44" y="112" width="50" height="14" rx="5" fill="#00875A"/>
    </g>
  </g>
</svg>
